<svg width="136" height="62" viewBox="0 0 136 62" fill="none" xmlns="http://www.w3.org/2000/svg">
<g clip-path="url(#clip0_3_39)">
<path d="M7.49865 62H6.65517V60.4304H0.843483V62H0V59.6756H0.750792C1.45987 57.8483 1.65916 55.4686 1.65916 53.5216V51.2892H6.5115V59.6756H7.49865V62ZM5.66802 59.6756V52.0487H2.49801V53.6275C2.49801 55.6251 2.30336 57.7286 1.64525 59.6756H5.66802Z" fill="white"/>
<path d="M8.50897 57.0336C8.50897 54.9945 9.81127 53.5078 11.679 53.5078C13.5467 53.5078 14.8119 54.9577 14.8119 57.0244C14.8119 57.1164 14.8119 57.2867 14.798 57.3788H9.35245C9.45905 58.8149 10.3767 59.8597 11.8505 59.8597C12.68 59.8597 13.3381 59.5467 13.8757 58.8931L14.4829 59.3258C13.8665 60.1221 12.972 60.5915 11.8922 60.5915C9.81591 60.5915 8.51361 58.9852 8.51361 57.0382M13.987 56.6699C13.9221 55.1924 12.921 54.2396 11.6697 54.2396C10.4184 54.2396 9.42197 55.1924 9.35709 56.6699H13.987Z" fill="white"/>
<path d="M16.5452 60.4304V53.6643H18.9135C20.6097 53.6643 21.3605 54.3455 21.3605 55.4134C21.3605 56.1176 21.0175 56.6285 20.3224 56.8633C21.1519 57.0474 21.7174 57.6089 21.7174 58.5249C21.7174 59.6111 20.9388 60.4304 18.9923 60.4304H16.5452ZM18.8996 54.3685H17.3331V56.5503H18.9644C20.0814 56.5503 20.5448 56.1314 20.5448 55.4502C20.5448 54.6907 20.0211 54.3639 18.8996 54.3639M19.0988 57.2499H17.3377V59.717H19.0618C20.2714 59.717 20.9017 59.2613 20.9017 58.5019C20.9017 57.7424 20.3594 57.2453 19.0988 57.2453" fill="white"/>
<path d="M23.1216 57.0336C23.1216 54.9945 24.4239 53.5078 26.2917 53.5078C28.1594 53.5078 29.4246 54.9577 29.4246 57.0244C29.4246 57.1164 29.4246 57.2867 29.4107 57.3788H23.9651C24.0717 58.8149 24.9894 59.8597 26.4631 59.8597C27.2927 59.8597 27.9508 59.5467 28.4884 58.8931L29.0909 59.3258C28.4745 60.1221 27.5801 60.5915 26.5002 60.5915C24.4239 60.5915 23.1216 58.9852 23.1216 57.0382M28.595 56.6699C28.5301 55.1924 27.5291 54.2396 26.2778 54.2396C25.0264 54.2396 24.03 55.1924 23.9651 56.6699H28.595Z" fill="white"/>
<path d="M30.0178 59.8183C30.2402 59.8459 30.3885 59.8597 30.611 59.8597C31.3989 59.8597 31.714 59.4546 31.714 58.5157V53.6689H36.5015V60.435H35.7136V54.3731H32.5019V58.5801C32.5019 60.0024 31.8577 60.5915 30.5415 60.5915C30.3839 60.5915 30.1614 60.5777 30.0178 60.5685V59.8229V59.8183Z" fill="white"/>
<path d="M41.5114 60.5869C39.5788 60.5869 38.2904 59.0956 38.2904 57.0474C38.2904 54.9991 39.5788 53.5078 41.5114 53.5078C43.444 53.5078 44.7324 54.9991 44.7324 57.0474C44.7324 59.0956 43.444 60.5869 41.5114 60.5869ZM41.5114 54.2396C40.0515 54.2396 39.1061 55.3351 39.1061 57.0474C39.1061 58.7596 40.0515 59.8551 41.5114 59.8551C42.9713 59.8551 43.9167 58.7596 43.9167 57.0474C43.9167 55.3351 42.9713 54.2396 41.5114 54.2396Z" fill="white"/>
<path d="M46.5213 53.6643H51.9159V60.4304H51.128V54.3685H47.3138V60.4304H46.5213V53.6643Z" fill="white"/>
<path d="M54.9144 55.1004V60.4304H54.0988V53.6643H54.8774L57.6627 57.9863L60.4527 53.6643H61.2266V60.4304H60.4156V55.1004L57.9269 58.9023H57.4032L54.9144 55.1004Z" fill="white"/>
<path d="M63.0156 57.0336C63.0156 54.9945 64.3179 53.5078 66.1856 53.5078C68.0533 53.5078 69.3185 54.9577 69.3185 57.0244C69.3185 57.1164 69.3185 57.2867 69.3046 57.3788H63.859C63.9656 58.8149 64.8833 59.8597 66.357 59.8597C67.1866 59.8597 67.8447 59.5467 68.3823 58.8931L68.9895 59.3258C68.3731 60.1221 67.4786 60.5915 66.3988 60.5915C64.3225 60.5915 63.0202 58.9852 63.0202 57.0382M68.4936 56.6699C68.4287 55.1924 67.4276 54.2396 66.1763 54.2396C64.925 54.2396 63.9286 55.1924 63.859 56.6699H68.4889H68.4936Z" fill="white"/>
<path d="M75.881 56.3938V53.6643H76.6689V60.4304H75.881V57.098H71.8443V60.4304H71.0565V53.6643H71.8443V56.3938H75.881Z" fill="white"/>
<path d="M80.6824 54.3685H78.1056V53.6643H84.0378V54.3685H81.4702V60.4304H80.6824V54.3685Z" fill="white"/>
<path d="M25.8652 16.2802L41.1545 0H25.1562L13.1481 14.8717C13.2686 11.2263 13.3196 12.4644 13.3196 8.483L13.3891 0H0.593201V41.8627H13.315V29.5225L17.106 25.5871L27.4039 41.8627H43.5737L25.8652 16.2802Z" fill="white"/>
<path d="M46.4147 0V41.8627H59.3821V10.766H71.5894V41.8627H84.5059V0H46.4147Z" fill="white"/>
<path d="M96.6205 0V3.76511C96.6205 14.2872 94.9567 24.9289 91.5827 31.1703L91.2166 31.7319C95.105 33.4717 99.1092 34.6638 103.164 35.299C107.85 24.3167 108.267 16.2848 108.267 14.0386V10.5128H116.266V35.4555C120.562 34.8848 124.822 33.6973 128.942 31.8883V0H96.6251H96.6205Z" fill="white"/>
<path d="M136 28.1094V41.8535C119.242 50.0741 101.278 50.0741 84.5244 41.8535V28.1094C100.625 38.4428 119.9 38.4428 136 28.1094Z" fill="#F39222"/>
</g>
<defs>
<clipPath id="clip0_3_39">
<rect width="136" height="62" fill="white"/>
</clipPath>
</defs>
</svg>
