<svg width="260" height="63" viewBox="0 0 260 63" fill="none" xmlns="http://www.w3.org/2000/svg">
<g clip-path="url(#clip0_3_3)">
<path d="M40.4865 0C27.3448 0 16.6933 10.5977 16.6933 23.6763C16.6933 36.755 27.3448 47.3491 40.4865 47.3491C53.6281 47.3491 64.2796 36.7515 64.2796 23.6763C64.2796 10.6012 53.6245 0 40.4865 0ZM40.4865 36.4041C33.4183 36.4041 27.694 30.7052 27.694 23.6763C27.694 16.6475 33.4219 10.9451 40.4865 10.9451C47.551 10.9451 53.2789 16.644 53.2789 23.6763C53.2789 30.7087 47.551 36.4041 40.4865 36.4041Z" fill="#F39323"/>
<path d="M0 35.9268V11.0749H7.67123V19.4864H15.3072V11.0749H22.9819V35.9268H15.3072V26.1257H7.67123V35.9268H0Z" fill="white"/>
<path d="M78.8285 24.2799C77.7951 23.0727 76.7229 22.3604 75.6542 22.1498C76.3314 21.827 76.9768 21.262 77.654 20.4444C78.3312 19.6303 78.6521 18.5986 78.6521 17.4265C78.6521 15.3315 77.9009 13.77 76.4019 12.7032C74.9029 11.6013 73.0089 11.0714 70.6917 11.0714H58.0227V35.9233H71.2243C73.9718 35.9233 76.1832 35.2495 77.8621 33.9336C79.5409 32.6212 80.3945 30.8806 80.3945 28.7155C80.3945 26.9434 79.8584 25.452 78.825 24.2799M65.6939 16.7913H69.5842C70.6176 16.7913 71.4006 17.5037 71.4006 18.5319V18.9144C71.4006 19.7987 70.6811 20.5181 69.7923 20.5181H65.6904V16.7913H65.6939ZM69.7288 30.0805H65.6939V25.6801H70.1485C71.1749 25.6801 72.0073 26.5082 72.0073 27.5294V27.9224C72.0073 27.968 72.0108 28.0101 72.0108 28.0558C72.0108 29.298 71.1185 30.0805 69.7288 30.0805Z" fill="white"/>
<path d="M123.181 11.0749C120.362 11.0749 118.084 11.8189 116.366 13.3489C114.652 14.8367 113.799 16.7563 113.799 19.0653C113.799 22.1709 115.492 24.7501 118.317 26.1748C118.543 26.2801 118.722 26.3363 118.722 26.3363L111.376 35.9303H119.791L126.235 27.3469H127.501V35.9303H135.176V11.0749H123.181ZM127.501 22.0726H124.002C122.722 22.0726 121.685 21.0409 121.685 19.7671C121.685 19.1285 121.946 18.5565 122.362 18.1354C122.782 17.7178 123.364 17.4581 124.002 17.4581H127.501V22.0691V22.0726Z" fill="white"/>
<path d="M147.986 40.5063V29.3577H150.518C152.123 26.4837 152.945 21.9744 152.945 15.9035V11.0749H172.393V29.3577H175.532V40.5063H168.323V35.9268H155.156V40.5063H147.982H147.986ZM164.757 29.3577V17.6406H160.154C160.154 19.5952 159.974 21.6866 159.653 23.9957C159.332 26.2696 158.867 28.0417 158.225 29.3577H164.753H164.757Z" fill="white"/>
<path d="M179.211 35.9268V11.0749H198.799V17.6406H186.882V20.2549H196.232V26.2907H186.882V29.3577H199.015V35.9268H179.211Z" fill="white"/>
<path d="M180.942 6.10244C180.942 4.22152 182.512 2.62135 184.476 2.62135C186.441 2.62135 188.01 4.14783 188.01 6.10244C188.01 8.05704 186.476 9.61862 184.476 9.61862C182.476 9.61862 180.942 8.05704 180.942 6.10244Z" fill="white"/>
<path d="M193.678 2.62485C194.641 2.62485 195.498 2.97928 196.175 3.65304C196.888 4.3268 197.248 5.14443 197.248 6.10244C197.248 8.05704 195.643 9.61862 193.678 9.61862C191.714 9.61862 190.144 8.05704 190.144 6.10244C190.144 4.14783 191.714 2.62135 193.678 2.62135" fill="white"/>
<path d="M202.975 35.9268V11.0749H210.576L216.036 19.9145L221.531 11.0749H229.096V35.9268H221.746V22.0095L218.212 27.9364H214.075L210.4 22.0095V35.9268H202.975Z" fill="white"/>
<path d="M73.9436 55.515H75.3579C77.2343 55.515 78.3594 56.3186 78.3594 58.2661C78.3594 60.2137 77.2872 61.0559 75.3967 61.0559H72.7797V51.6619H77.8198V52.6866H73.9436V55.515ZM75.2133 56.4624H73.9436V60.1084H75.3191C76.5113 60.1084 77.1426 59.568 77.1426 58.2907C77.1426 57.0134 76.5077 56.4624 75.2133 56.4624Z" fill="white"/>
<path d="M87.5755 56.3572C87.5755 58.7258 87.1381 61.2384 84.5352 61.2384C81.9323 61.2384 81.4914 58.7258 81.4914 56.3572C81.4914 53.9885 81.9287 51.4759 84.5352 51.4759C87.1416 51.4759 87.5755 53.9885 87.5755 56.3572ZM82.7082 56.3572C82.7082 58.5258 82.9198 60.2909 84.5352 60.2909C86.1506 60.2909 86.3587 58.5293 86.3587 56.3572C86.3587 54.185 86.147 52.4234 84.5352 52.4234C82.9234 52.4234 82.7082 54.1885 82.7082 56.3572Z" fill="white"/>
<path d="M95.2044 61.0559V52.6901H92.9153L92.7284 58.0591C92.6508 60.1786 92.2276 61.2454 90.7991 61.2454C90.5346 61.2454 90.2701 61.2033 90.0585 61.1542V60.2313C90.189 60.2734 90.3759 60.2979 90.5205 60.2979C91.2471 60.2979 91.5398 59.8909 91.6033 57.5082L91.7761 51.6689H96.3648V61.0629H95.2008L95.2044 61.0559Z" fill="white"/>
<path d="M101.045 55.515H102.368C104.244 55.515 105.369 56.3186 105.369 58.2661C105.369 60.2137 104.297 61.0559 102.406 61.0559H99.8812V51.6619H101.045V55.515ZM102.223 56.4624H101.045V60.1084H102.329C103.521 60.1084 104.152 59.568 104.152 58.2907C104.152 57.0134 103.517 56.4624 102.223 56.4624Z" fill="white"/>
<path d="M108.505 51.6619H109.669V60.0277H112.444V51.6619H113.608V60.0277H116.384V51.6619H117.548V61.0559H108.505V51.6619Z" fill="white"/>
<path d="M121.064 51.6619H125.946V52.6866H122.228V55.6343H125.731V56.6589H122.228V60.0277H126.101V61.0559H121.064V51.6619Z" fill="white"/>
<path d="M129.381 59.6593H130.598V60.8033C130.598 61.8034 130.506 62.6842 129.381 63V62.3824C129.843 62.1578 129.963 61.8981 129.963 61.3682V61.0524H129.381V59.6593Z" fill="white"/>
<path d="M141.359 57.252C139.8 57.252 138.858 56.4344 138.858 54.764V51.6584H140.022V54.764C140.022 55.8448 140.576 56.2659 141.436 56.2659C141.951 56.2659 142.48 56.1887 143.115 56.0273V51.6584H144.279V61.0524H143.115V56.9607C142.509 57.1432 141.941 57.2485 141.355 57.2485" fill="white"/>
<path d="M147.799 51.6619H152.677V52.6866H148.959V55.6343H152.465V56.6589H148.959V60.0277H152.836V61.0559H147.799V51.6619Z" fill="white"/>
<path d="M155.929 51.6619H157.886L159.777 59.1083H159.805L161.695 51.6619H163.653V61.0559H162.489V52.8445H162.461L160.373 61.0559H159.209L157.121 52.8445H157.093V61.0559H155.929V51.6619Z" fill="white"/>
<path d="M172.375 51.6619H174.333L176.223 59.1083H176.251L178.142 51.6619H180.099V61.0559H178.935V52.8445H178.911L176.819 61.0559H175.655L173.567 52.8445H173.539V61.0559H172.375V51.6619Z" fill="white"/>
<path d="M188.215 61.0559V53.4761H188.162L185.108 61.0559H183.64V51.6619H184.804V59.2241H184.857L187.912 51.6619H189.379V61.0559H188.215Z" fill="white"/>
<path d="M192.895 51.6619H194.059V56.2133H194.087L197.353 51.6619H198.648L195.791 55.5816L198.888 61.0559H197.59L195.04 56.5291L194.059 57.8556V61.0559H192.895V51.6619Z" fill="white"/>
<path d="M201.491 51.6584H203.896C204.704 51.6584 206.82 51.6584 206.82 54.3569C206.82 56.108 205.695 57.08 204.097 57.08H202.654V61.0524H201.491V51.6584ZM202.654 56.1326H204.044C204.891 56.1326 205.603 55.5536 205.603 54.3043C205.603 53.2656 205.127 52.6059 203.963 52.6059H202.654V56.1326Z" fill="white"/>
<path d="M215.782 56.3572C215.782 58.7258 215.345 61.2384 212.742 61.2384C210.139 61.2384 209.701 58.7258 209.701 56.3572C209.701 53.9885 210.139 51.4759 212.742 51.4759C215.345 51.4759 215.782 53.9885 215.782 56.3572ZM210.915 56.3572C210.915 58.5258 211.126 60.2909 212.742 60.2909C214.357 60.2909 214.565 58.5293 214.565 56.3572C214.565 54.185 214.354 52.4234 212.742 52.4234C211.13 52.4234 210.915 54.1885 210.915 56.3572Z" fill="white"/>
<path d="M219.168 51.6584H221.573C222.381 51.6584 224.497 51.6584 224.497 54.3569C224.497 56.108 223.372 57.08 221.774 57.08H220.332V61.0524H219.168V51.6584ZM220.332 56.1326H221.721C222.568 56.1326 223.28 55.5536 223.28 54.3043C223.28 53.2656 222.804 52.6059 221.64 52.6059H220.332V56.1326Z" fill="white"/>
<path d="M228.871 51.6619H230.43L232.969 61.0559H231.752L231.079 58.4767H228.063L227.361 61.0559H226.144L228.867 51.6619H228.871ZM230.842 57.5292L229.64 52.9884H229.611L228.303 57.5292H230.842Z" fill="white"/>
<path d="M240.189 61.0559V53.4761H240.136L237.082 61.0559H235.614V51.6619H236.778V59.2276H236.831L239.886 51.6619H241.353V61.0559H240.189ZM237.558 49.1107C237.649 49.6897 238.062 49.9915 238.577 49.9915C239.092 49.9915 239.501 49.6897 239.596 49.1107H240.231C240.231 49.7178 239.9 50.7811 238.577 50.7811C237.254 50.7811 236.923 49.7283 236.923 49.1107H237.558Z" fill="white"/>
<path d="M250.819 56.3572C250.819 58.7258 250.382 61.2384 247.779 61.2384C245.176 61.2384 244.735 58.7258 244.735 56.3572C244.735 53.9885 245.172 51.4759 247.779 51.4759C250.385 51.4759 250.819 53.9885 250.819 56.3572ZM245.952 56.3572C245.952 58.5258 246.164 60.2909 247.779 60.2909C249.394 60.2909 249.602 58.5293 249.602 56.3572C249.602 54.185 249.391 52.4234 247.779 52.4234C246.167 52.4234 245.952 54.1885 245.952 56.3572Z" fill="white"/>
<path d="M254.205 51.6619H255.366V55.5009H258.607V51.6619H259.771V61.0559H258.607V56.5291H255.366V61.0559H254.205V51.6619Z" fill="white"/>
<path d="M249.687 10.931H242.372L232.094 35.9268H240.016L241.645 31.7649L243.543 26.4135L245.906 18.9354L248.509 26.4801L250.16 31.7649L251.757 35.9268H260L249.687 10.931Z" fill="white"/>
<path d="M246.047 33.2423C240.958 33.2423 239 32.0597 238.231 31.4175L240.82 26.6346C240.82 26.6346 240.937 26.7188 240.827 26.6521C240.841 26.6591 242.157 27.5996 246.047 27.5996C249.937 27.5996 251.253 26.6626 251.267 26.6521C251.158 26.7188 251.281 26.6767 251.281 26.6767L253.87 31.4597C253.098 32.0597 251.14 33.2388 246.047 33.2388" fill="white"/>
<path d="M99.7613 10.931H92.4463L82.1686 35.9268H90.0902L91.7197 31.7649L93.6172 26.4135L95.9768 18.9354L98.5833 26.4801L100.234 31.7649L101.832 35.9268H110.074L99.7613 10.931Z" fill="white"/>
<path d="M96.1179 33.2423C91.0284 33.2423 89.0709 32.0597 88.302 31.4175L90.8909 26.6346C90.8909 26.6346 91.0072 26.7188 90.9014 26.6521C90.9155 26.6591 92.2311 27.5996 96.1214 27.5996C100.012 27.5996 101.327 26.6626 101.341 26.6521C101.232 26.7188 101.355 26.6767 101.355 26.6767L103.944 31.4597C103.172 32.0597 101.211 33.2388 96.1214 33.2388" fill="white"/>
</g>
<defs>
<clipPath id="clip0_3_3">
<rect width="260" height="63" fill="white"/>
</clipPath>
</defs>
</svg>
